<?xml version="1.0" encoding="UTF-8"?>
<svg width="189px" height="26px" viewBox="0 0 189 26" version="1.1" xmlns="http://www.w3.org/2000/svg" xmlns:xlink="http://www.w3.org/1999/xlink">
    <!-- Generator: Sketch 46.2 (44496) - http://www.bohemiancoding.com/sketch -->
    <title>Group 2</title>
    <desc>Created with Sketch.</desc>
    <defs></defs>
    <g id="Page-1" stroke="none" stroke-width="1" fill="none" fill-rule="evenodd">
        <g id="Desktop-HD" transform="translate(-625.000000, -106.000000)">
            <g id="Group-2" transform="translate(625.000000, 105.000000)">
                <g id="noun_828835_cc" transform="translate(0.000000, 1.000000)" fill-rule="nonzero" fill="#57C5CB">
                    <g id="Group">
                        <g id="Shape">
                            <path d="M19.9547262,15.4139419 L13.5239411,19.3139019 C13.3207283,19.4374006 13.0905062,19.4998 12.8615702,19.4998 C12.6429235,19.4998 12.425563,19.4439006 12.2274948,19.3308017 C11.8249277,19.0994041 11.5754132,18.6678085 11.5754132,18.1998133 L11.5754132,10.3998933 C11.5754132,9.93059815 11.8249277,9.49900257 12.2274948,9.26760495 C12.6313481,9.03750731 13.1252324,9.04270725 13.5239411,9.28450477 L19.9547262,13.1844648 C20.3418594,13.4197624 20.5785123,13.843558 20.5785123,14.2998533 C20.5785123,14.7561487 20.3418594,15.1786443 19.9547262,15.4139419 M27.0092974,3.89996 L15.9624948,3.89996 L12.4358522,0.375696147 C12.1953409,0.135198613 11.8712293,0 11.5316839,0 L3.72599689,0 C1.67200413,0 0,1.72378232 0,3.84276059 L0,22.1556728 C0,24.274651 1.67200413,25.9997333 3.72599689,25.9997333 L27.1430578,25.9997333 C29.1970505,25.9997333 30.8677685,24.274651 30.8677685,22.1556728 L30.8677685,7.91171885 C30.8677685,5.77454077 29.0645764,3.89996 27.0092974,3.89996"></path>
                        </g>
                    </g>
                </g>
                <path d="M56.558,15.473 L56.993,11.442 L56.819,11.442 L55.572,14.69 L51.251,22.259 L49.975,22.259 L45.422,14.661 L44.146,11.442 L44.001,11.442 L44.581,15.444 L44.581,26 L40.811,26 L40.811,5.7 L44.436,5.7 L49.859,14.98 L50.816,17.3 L50.932,17.3 L51.802,14.922 L56.935,5.7 L60.531,5.7 L60.531,26 L56.558,26 L56.558,15.473 Z M63.228,18.75 C63.228,16.2946544 63.8273273,14.40484 65.026,13.0805 C66.2246727,11.75616 67.9066558,11.094 70.072,11.094 C71.2320058,11.094 72.2373291,11.2776648 73.088,11.645 C73.9386709,12.0123352 74.6443305,12.5294967 75.205,13.1965 C75.7656695,13.8635033 76.1861653,14.6706619 76.4665,15.618 C76.7468347,16.5653381 76.887,17.6093276 76.887,18.75 C76.887,21.2053456 76.2925059,23.09516 75.1035,24.4195 C73.9144941,25.74384 72.2373442,26.406 70.072,26.406 C68.9119942,26.406 67.9066709,26.2223352 67.056,25.855 C66.2053291,25.4876648 65.4948362,24.9705033 64.9245,24.3035 C64.3541638,23.6364967 63.9288347,22.8293381 63.6485,21.882 C63.3681653,20.9346619 63.228,19.8906724 63.228,18.75 Z M67.114,18.75 C67.114,19.3880032 67.1719994,19.977664 67.288,20.519 C67.4040006,21.060336 67.5779988,21.533998 67.81,21.94 C68.0420012,22.346002 68.3464981,22.6601656 68.7235,22.8825 C69.1005019,23.1048344 69.5499974,23.216 70.072,23.216 C71.0580049,23.216 71.7926643,22.8583369 72.276,22.143 C72.7593358,21.4276631 73.001,20.2966744 73.001,18.75 C73.001,17.4159933 72.7786689,16.3381708 72.334,15.5165 C71.8893311,14.6948292 71.1353386,14.284 70.072,14.284 C69.1439954,14.284 68.4190026,14.6319965 67.897,15.328 C67.3749974,16.0240035 67.114,17.1646587 67.114,18.75 Z M84.514,19.098 L85.007,21.331 L85.152,21.331 L85.558,19.04 L88.023,11.5 L92.083,11.5 L86.022,26.145 L83.731,26.145 L77.438,11.5 L81.817,11.5 L84.514,19.098 Z M93.678,11.5 L97.448,11.5 L97.448,26 L93.678,26 L93.678,11.5 Z M93.127,7.411 C93.127,6.85033053 93.3348313,6.37183531 93.7505,5.9755 C94.1661687,5.57916469 94.7413297,5.381 95.476,5.381 C96.2106703,5.381 96.8051644,5.57916469 97.2595,5.9755 C97.7138356,6.37183531 97.941,6.85033053 97.941,7.411 C97.941,7.97166947 97.7138356,8.44049812 97.2595,8.8175 C96.8051644,9.19450188 96.2106703,9.383 95.476,9.383 C94.7413297,9.383 94.1661687,9.19450188 93.7505,8.8175 C93.3348313,8.44049812 93.127,7.97166947 93.127,7.411 Z M112.731,24.753 C112.150997,25.2170023 111.363172,25.6084984 110.3675,25.9275 C109.371828,26.2465016 108.313339,26.406 107.192,26.406 C104.852655,26.406 103.141672,25.7245068 102.059,24.3615 C100.976328,22.9984932 100.435,21.1280119 100.435,18.75 C100.435,16.1979872 101.043994,14.2840064 102.262,13.008 C103.480006,11.7319936 105.190989,11.094 107.395,11.094 C108.12967,11.094 108.844997,11.1906657 109.541,11.384 C110.237003,11.5773343 110.855664,11.8963311 111.397,12.341 C111.938336,12.7856689 112.373332,13.3849962 112.702,14.139 C113.030668,14.8930038 113.195,15.8306611 113.195,16.952 C113.195,17.358002 113.170834,17.7929977 113.1225,18.257 C113.074166,18.7210023 113.001667,19.2043308 112.905,19.707 L104.205,19.707 C104.263,20.9250061 104.577164,21.8433302 105.1475,22.462 C105.717836,23.0806698 106.640994,23.39 107.917,23.39 C108.709671,23.39 109.420164,23.2691679 110.0485,23.0275 C110.676836,22.7858321 111.155332,22.5393346 111.484,22.288 L112.731,24.753 Z M107.337,14.11 C106.350995,14.11 105.621169,14.4048304 105.1475,14.9945 C104.673831,15.5841696 104.388667,16.3719951 104.292,17.358 L109.686,17.358 C109.763334,16.3139948 109.603835,15.5116695 109.2075,14.951 C108.811165,14.3903305 108.187671,14.11 107.337,14.11 Z M124.099,26 L124.099,18.112 C124.099,16.7779933 123.973335,15.8306695 123.722,15.27 C123.470665,14.7093305 122.948671,14.429 122.156,14.429 C121.498663,14.429 120.967002,14.6078315 120.561,14.9655 C120.154998,15.3231685 119.845668,15.7823305 119.633,16.343 L119.633,26 L115.863,26 L115.863,11.5 L118.792,11.5 L119.227,13.414 L119.343,13.414 C119.787669,12.7953302 120.353163,12.2540023 121.0395,11.79 C121.725837,11.3259977 122.610328,11.094 123.693,11.094 C124.621005,11.094 125.37983,11.2824981 125.9695,11.6595 C126.55917,12.0365019 127.018332,12.6696622 127.347,13.559 C127.791669,12.8049962 128.361997,12.2056689 129.058,11.761 C129.754003,11.3163311 130.594995,11.094 131.581,11.094 C132.393004,11.094 133.084164,11.1906657 133.6545,11.384 C134.224836,11.5773343 134.688832,11.910831 135.0465,12.3845 C135.404168,12.858169 135.669999,13.4913294 135.844,14.284 C136.018001,15.0766706 136.105,16.0819939 136.105,17.3 L136.105,26 L132.335,26 L132.335,17.851 C132.335,16.7103276 132.214168,15.8548362 131.9725,15.2845 C131.730832,14.7141638 131.194337,14.429 130.363,14.429 C129.68633,14.429 129.149835,14.6126648 128.7535,14.98 C128.357165,15.3473352 128.062334,15.8499968 127.869,16.488 L127.869,26 L124.099,26 Z M139.121,12.341 C139.894337,11.9929983 140.812661,11.717501 141.876,11.5145 C142.939339,11.311499 144.050994,11.21 145.211,11.21 C146.216338,11.21 147.05733,11.3308321 147.734,11.5725 C148.41067,11.8141679 148.947165,12.1573311 149.3435,12.602 C149.739835,13.0466689 150.020166,13.5783302 150.1845,14.197 C150.348834,14.8156698 150.431,15.5116628 150.431,16.285 C150.431,17.1356709 150.402,17.9911624 150.344,18.8515 C150.286,19.7118376 150.252167,20.5576625 150.2425,21.389 C150.232833,22.2203375 150.257,23.0274961 150.315,23.8105 C150.373,24.5935039 150.517999,25.3329965 150.75,26.029 L147.676,26.029 L147.067,24.028 L146.922,24.028 C146.535331,24.6273363 145.998837,25.1444978 145.3125,25.5795 C144.626163,26.0145022 143.741672,26.232 142.659,26.232 C141.98233,26.232 141.373336,26.130501 140.832,25.9275 C140.290664,25.724499 139.826669,25.4345019 139.44,25.0575 C139.053331,24.6804981 138.753668,24.2358359 138.541,23.7235 C138.328332,23.2111641 138.222,22.6360032 138.222,21.998 C138.222,21.1086622 138.420165,20.359503 138.8165,19.7505 C139.212835,19.141497 139.783163,18.6485019 140.5275,18.2715 C141.271837,17.8944981 142.161161,17.6335007 143.1955,17.4885 C144.229839,17.3434993 145.384994,17.2999997 146.661,17.358 C146.796334,16.2753279 146.719001,15.497169 146.429,15.0235 C146.138999,14.549831 145.491338,14.313 144.486,14.313 C143.731996,14.313 142.934504,14.3903326 142.0935,14.545 C141.252496,14.6996674 140.561336,14.9026654 140.02,15.154 L139.121,12.341 Z M143.906,23.129 C144.660004,23.129 145.259331,22.959835 145.704,22.6215 C146.148669,22.283165 146.477332,21.9206686 146.69,21.534 L146.69,19.649 C146.090664,19.5909997 145.515503,19.5813331 144.9645,19.62 C144.413497,19.6586669 143.925335,19.745666 143.5,19.881 C143.074665,20.016334 142.736335,20.2096654 142.485,20.461 C142.233665,20.7123346 142.108,21.0313314 142.108,21.418 C142.108,21.959336 142.267498,22.3798318 142.5865,22.6795 C142.905502,22.9791682 143.345331,23.129 143.906,23.129 Z M162.466,26 L162.466,17.764 C162.466,16.5846608 162.296835,15.7340026 161.9585,15.212 C161.620165,14.6899974 161.045004,14.429 160.233,14.429 C159.517663,14.429 158.913502,14.6368313 158.4205,15.0525 C157.927498,15.4681687 157.574668,15.9853302 157.362,16.604 L157.362,26 L153.592,26 L153.592,11.5 L156.579,11.5 L157.014,13.414 L157.13,13.414 C157.574669,12.7953302 158.16433,12.2540023 158.899,11.79 C159.63367,11.3259977 160.580994,11.094 161.741,11.094 C162.456337,11.094 163.094331,11.1906657 163.655,11.384 C164.215669,11.5773343 164.689331,11.8963311 165.076,12.341 C165.462669,12.7856689 165.752666,13.3898295 165.946,14.1535 C166.139334,14.9171705 166.236,15.8596611 166.236,16.981 L166.236,26 L162.466,26 Z M169.745,11.5 L173.515,11.5 L173.515,26 L169.745,26 L169.745,11.5 Z M169.194,7.411 C169.194,6.85033053 169.401831,6.37183531 169.8175,5.9755 C170.233169,5.57916469 170.80833,5.381 171.543,5.381 C172.27767,5.381 172.872164,5.57916469 173.3265,5.9755 C173.780836,6.37183531 174.008,6.85033053 174.008,7.411 C174.008,7.97166947 173.780836,8.44049812 173.3265,8.8175 C172.872164,9.19450188 172.27767,9.383 171.543,9.383 C170.80833,9.383 170.233169,9.19450188 169.8175,8.8175 C169.401831,8.44049812 169.194,7.97166947 169.194,7.411 Z M177.111,12.341 C177.884337,11.9929983 178.802661,11.717501 179.866,11.5145 C180.929339,11.311499 182.040994,11.21 183.201,11.21 C184.206338,11.21 185.04733,11.3308321 185.724,11.5725 C186.40067,11.8141679 186.937165,12.1573311 187.3335,12.602 C187.729835,13.0466689 188.010166,13.5783302 188.1745,14.197 C188.338834,14.8156698 188.421,15.5116628 188.421,16.285 C188.421,17.1356709 188.392,17.9911624 188.334,18.8515 C188.276,19.7118376 188.242167,20.5576625 188.2325,21.389 C188.222833,22.2203375 188.247,23.0274961 188.305,23.8105 C188.363,24.5935039 188.507999,25.3329965 188.74,26.029 L185.666,26.029 L185.057,24.028 L184.912,24.028 C184.525331,24.6273363 183.988837,25.1444978 183.3025,25.5795 C182.616163,26.0145022 181.731672,26.232 180.649,26.232 C179.97233,26.232 179.363336,26.130501 178.822,25.9275 C178.280664,25.724499 177.816669,25.4345019 177.43,25.0575 C177.043331,24.6804981 176.743668,24.2358359 176.531,23.7235 C176.318332,23.2111641 176.212,22.6360032 176.212,21.998 C176.212,21.1086622 176.410165,20.359503 176.8065,19.7505 C177.202835,19.141497 177.773163,18.6485019 178.5175,18.2715 C179.261837,17.8944981 180.151161,17.6335007 181.1855,17.4885 C182.219839,17.3434993 183.374994,17.2999997 184.651,17.358 C184.786334,16.2753279 184.709001,15.497169 184.419,15.0235 C184.128999,14.549831 183.481338,14.313 182.476,14.313 C181.721996,14.313 180.924504,14.3903326 180.0835,14.545 C179.242496,14.6996674 178.551336,14.9026654 178.01,15.154 L177.111,12.341 Z M181.896,23.129 C182.650004,23.129 183.249331,22.959835 183.694,22.6215 C184.138669,22.283165 184.467332,21.9206686 184.68,21.534 L184.68,19.649 C184.080664,19.5909997 183.505503,19.5813331 182.9545,19.62 C182.403497,19.6586669 181.915335,19.745666 181.49,19.881 C181.064665,20.016334 180.726335,20.2096654 180.475,20.461 C180.223665,20.7123346 180.098,21.0313314 180.098,21.418 C180.098,21.959336 180.257498,22.3798318 180.5765,22.6795 C180.895502,22.9791682 181.335331,23.129 181.896,23.129 Z" id="Moviemania" fill="#FFFFFF"></path>
            </g>
        </g>
    </g>
</svg>