<?xml version="1.0" encoding="UTF-8"?>
<svg width="20px" height="20px" viewBox="0 0 20 20" version="1.1" xmlns="http://www.w3.org/2000/svg" xmlns:xlink="http://www.w3.org/1999/xlink">
    <!-- Generator: Sketch 46.2 (44496) - http://www.bohemiancoding.com/sketch -->
    <title>Combined Shape</title>
    <desc>Created with Sketch.</desc>
    <defs></defs>
    <g id="Page-1" stroke="none" stroke-width="1" fill="none" fill-rule="evenodd">
        <g id="Moviedetails" transform="translate(-454.000000, -352.000000)" fill="#FFFFFF">
            <path d="M464,372 C458.477153,372 454,367.522847 454,362 C454,356.477153 458.477153,352 464,352 C469.522847,352 474,356.477153 474,362 C474,367.522847 469.522847,372 464,372 Z M467.731771,362.085517 C467.731771,361.695969 467.536997,361.342942 467.196143,361.148169 L462.93547,358.591765 C462.412015,358.275257 461.742481,358.445684 461.425974,358.969138 C461.328587,359.139565 461.26772,359.334339 461.26772,359.529113 L461.26772,364.641921 C461.26772,365.250588 461.754654,365.737523 462.363322,365.737523 C462.558096,365.737523 462.765043,365.688829 462.93547,365.579269 L467.196143,363.022865 C467.536997,362.828091 467.743944,362.475064 467.731771,362.085517 Z" id="Combined-Shape"></path>
        </g>
    </g>
</svg>